<svg width="169" height="169" viewBox="0 0 169 169" fill="none" xmlns="http://www.w3.org/2000/svg">
<rect width="119.304" height="119.329" rx="38" transform="matrix(0.724402 0.689378 -0.686616 0.72702 81.9329 0)" fill="#00887A"/>
<path d="M84.1786 34.6902L97.5806 71.0468L133.799 84.5L97.5806 97.9532L84.1786 134.31L70.7766 97.9532L34.5582 84.5L70.7766 71.0468L84.1786 34.6902Z" fill="#77A6F7"/>
<ellipse cx="65.3229" cy="84.5" rx="14.8861" ry="14.9429" fill="#D3E3FC"/>
<ellipse cx="104.027" cy="84.5" rx="14.8861" ry="14.9429" fill="#D3E3FC"/>
<line x1="80.209" y1="84" x2="89.1406" y2="84" stroke="black"/>
<path d="M104.523 79.519L109.25 87.7376H99.796L104.523 79.519Z" fill="#FFCCBC"/>
<path d="M65.8191 79.519L70.5461 87.7376H61.0921L65.8191 79.519Z" fill="#FFCCBC"/>
<path d="M66.224 33C66.0533 33 65.904 32.9413 65.776 32.824C65.6587 32.696 65.6 32.5467 65.6 32.376V21.128C65.6 20.9467 65.6587 20.7973 65.776 20.68C65.904 20.5627 66.0533 20.504 66.224 20.504C66.48 20.504 66.6667 20.6107 66.784 20.824L72.176 31.544H71.632L76.928 20.824C77.056 20.6107 77.2427 20.504 77.488 20.504C77.6587 20.504 77.8027 20.5627 77.92 20.68C78.0373 20.7973 78.096 20.9467 78.096 21.128V32.376C78.096 32.5467 78.0373 32.696 77.92 32.824C77.8027 32.9413 77.6587 33 77.488 33C77.3067 33 77.152 32.9413 77.024 32.824C76.9067 32.696 76.848 32.5467 76.848 32.376V22.744L77.12 22.76L72.4 32.408C72.2827 32.6107 72.1013 32.712 71.856 32.712C71.5893 32.712 71.3973 32.584 71.28 32.328L66.528 22.824L66.848 22.744V32.376C66.848 32.5467 66.784 32.696 66.656 32.824C66.5387 32.9413 66.3947 33 66.224 33Z" fill="white"/>
<path d="M81.304 33C81.1013 33 80.9307 32.9467 80.792 32.84C80.664 32.7227 80.6 32.568 80.6 32.376V21.128C80.6 20.9467 80.6587 20.7973 80.776 20.68C80.8933 20.5627 81.0427 20.504 81.224 20.504H85.112C85.752 20.504 86.328 20.6427 86.84 20.92C87.3627 21.1867 87.7733 21.5547 88.072 22.024C88.3813 22.4933 88.536 23.0373 88.536 23.656C88.536 24.232 88.3813 24.744 88.072 25.192C87.7627 25.64 87.3573 25.9813 86.856 26.216C87.5707 26.408 88.1467 26.7707 88.584 27.304C89.0213 27.8267 89.24 28.4933 89.24 29.304C89.24 30.0293 89.0747 30.6693 88.744 31.224C88.4133 31.7787 87.9547 32.216 87.368 32.536C86.792 32.8453 86.1307 33 85.384 33H81.304ZM81.848 31.8H85.384C85.896 31.8 86.3493 31.6987 86.744 31.496C87.1387 31.2933 87.448 31.0053 87.672 30.632C87.896 30.2587 88.008 29.816 88.008 29.304C88.008 28.824 87.896 28.408 87.672 28.056C87.448 27.6933 87.1387 27.416 86.744 27.224C86.3493 27.0213 85.896 26.92 85.384 26.92H81.848V31.8ZM81.848 25.72H85.112C85.752 25.72 86.28 25.5387 86.696 25.176C87.112 24.8133 87.32 24.3067 87.32 23.656C87.32 23.016 87.112 22.5307 86.696 22.2C86.28 21.8693 85.752 21.704 85.112 21.704H81.848V25.72Z" fill="white"/>
<path d="M94.44 33.16C93.7573 33.16 93.1227 33.064 92.536 32.872C91.96 32.6693 91.4587 32.3867 91.032 32.024C90.6053 31.6613 90.28 31.24 90.056 30.76C89.9707 30.5893 89.9653 30.4347 90.04 30.296C90.1253 30.1467 90.264 30.0453 90.456 29.992C90.6053 29.9493 90.7493 29.9653 90.888 30.04C91.0373 30.1147 91.1493 30.2267 91.224 30.376C91.384 30.6853 91.6187 30.9627 91.928 31.208C92.2373 31.4533 92.6053 31.6453 93.032 31.784C93.4587 31.912 93.928 31.976 94.44 31.976C95.0053 31.976 95.5067 31.8853 95.944 31.704C96.3813 31.512 96.7227 31.24 96.968 30.888C97.224 30.5253 97.352 30.088 97.352 29.576C97.352 28.9253 97.112 28.3653 96.632 27.896C96.152 27.4267 95.4 27.128 94.376 27C93.128 26.8507 92.152 26.4667 91.448 25.848C90.744 25.2187 90.392 24.4507 90.392 23.544C90.392 22.8933 90.5627 22.328 90.904 21.848C91.256 21.368 91.736 21 92.344 20.744C92.952 20.4773 93.6507 20.344 94.44 20.344C95.0267 20.344 95.56 20.44 96.04 20.632C96.52 20.8133 96.936 21.0587 97.288 21.368C97.6507 21.6667 97.944 21.9973 98.168 22.36C98.2747 22.5307 98.3067 22.696 98.264 22.856C98.232 23.016 98.1413 23.1387 97.992 23.224C97.832 23.2987 97.6667 23.3093 97.496 23.256C97.336 23.2027 97.2133 23.1013 97.128 22.952C96.968 22.7067 96.7653 22.4773 96.52 22.264C96.2853 22.04 95.9973 21.864 95.656 21.736C95.3147 21.608 94.904 21.5387 94.424 21.528C93.5813 21.528 92.904 21.7093 92.392 22.072C91.88 22.424 91.624 22.9413 91.624 23.624C91.624 23.9867 91.72 24.3227 91.912 24.632C92.104 24.9307 92.4187 25.192 92.856 25.416C93.304 25.6293 93.9013 25.7893 94.648 25.896C95.9813 26.088 96.968 26.4987 97.608 27.128C98.2587 27.7467 98.584 28.5573 98.584 29.56C98.584 30.136 98.4773 30.648 98.264 31.096C98.0613 31.544 97.768 31.9227 97.384 32.232C97.0107 32.5307 96.568 32.76 96.056 32.92C95.5547 33.08 95.016 33.16 94.44 33.16Z" fill="white"/>
</svg>
